<?xml version="1.0" encoding="UTF-8" standalone="no"?>
<svg
   xmlns:dc="http://purl.org/dc/elements/1.1/"
   xmlns:cc="http://creativecommons.org/ns#"
   xmlns:rdf="http://www.w3.org/1999/02/22-rdf-syntax-ns#"
   xmlns:svg="http://www.w3.org/2000/svg"
   xmlns="http://www.w3.org/2000/svg"
   xmlns:sodipodi="http://sodipodi.sourceforge.net/DTD/sodipodi-0.dtd"
   xmlns:inkscape="http://www.inkscape.org/namespaces/inkscape"
   width="123.93008mm"
   height="413.41492mm"
   viewBox="0 0 123.93007 413.41492"
   version="1.1"
   id="svg10"
   sodipodi:docname="logo dekl.svg"
   inkscape:version="0.92.3 (2405546, 2018-03-11)">
  <metadata
     id="metadata16">
    <rdf:RDF>
      <cc:Work
         rdf:about="">
        <dc:format>image/svg+xml</dc:format>
        <dc:type
           rdf:resource="http://purl.org/dc/dcmitype/StillImage" />
        <dc:title />
      </cc:Work>
    </rdf:RDF>
  </metadata>
  <defs
     id="defs14" />
  <sodipodi:namedview
     pagecolor="#ffffff"
     bordercolor="#666666"
     borderopacity="1"
     objecttolerance="10"
     gridtolerance="10"
     guidetolerance="10"
     inkscape:pageopacity="0"
     inkscape:pageshadow="2"
     inkscape:window-width="1920"
     inkscape:window-height="1017"
     id="namedview12"
     showgrid="false"
     inkscape:zoom="0.40026709"
     inkscape:cx="212.50597"
     inkscape:cy="867.10153"
     inkscape:window-x="1272"
     inkscape:window-y="-8"
     inkscape:window-maximized="1"
     inkscape:current-layer="global-translation-frame-7-5" />
  <desc
     id="desc2">Created with Glowforge for Fusion 360 CAM and HSM. To download visit: https://cam.autodesk.com/hsmposts?p=glowforge</desc>
  <!-- CAM Setup Info:
Work Area Width: 103mm
Work Area Height: 78mm
Stock box Upper Right: 49.5,37
Stock box Lower Left: -49.5,-37
Origin: 0,0
Selected Colors: #0000d3, #02abea, #1fb714, #dd0907, #f20884, #fbf305
-->
  <g
     id="global-translation-frame"
     transform="matrix(1,0,0,-1,48.62,36.12)"
     style="stroke:#ff0000;stroke-opacity:1">
    <g
       id="operation-1"
       style="stroke:#ff0000;stroke-opacity:1">
      <title
         id="title4">2D Profile1 (Op: 1/1)</title>
      <path
         d="M 46.121,-10.07 H 45.57 v -6.527 h 2.93 c 0.03866,0 0.07,-0.03134 0.07,-0.07 v -6.666 c 0,-0.03866 -0.03134,-0.07 -0.07,-0.07 H 45.57 V -33 c 0,-0.03866 -0.03134,-0.07 -0.07,-0.07 H 33.126 V -36 c 0,-0.03866 -0.03134,-0.07 -0.07,-0.07 h -9.445 c -0.03866,0 -0.07,0.03134 -0.07,0.07 v 2.93 H 14.237 V -36 c 0,-0.03866 -0.03134,-0.07 -0.07,-0.07 H 4.722 c -0.03866,0 -0.07,0.03134 -0.07,0.07 v 2.93 H -4.652 V -36 c 0,-0.03866 -0.03134,-0.07 -0.07,-0.07 h -9.445 c -0.03866,0 -0.07,0.03134 -0.07,0.07 v 2.93 h -9.304 V -36 c 0,-0.03866 -0.03134,-0.07 -0.07,-0.07 h -9.445 c -0.03866,0 -0.07,0.03134 -0.07,0.07 v 2.93 H -45.5 c -0.03866,0 -0.07,0.03134 -0.07,0.07 v 9.597 h -2.93 c -0.03866,0 -0.07,0.03134 -0.07,0.07 v 6.666 c 0,0.03866 0.03134,0.07 0.07,0.07 h 2.93 v 6.527 h -2.93 c -0.03866,0 -0.07,0.03134 -0.07,0.07 v 6.667 c 0,0.03866 0.03134,0.07 0.07,0.07 h 2.93 v 6.526 h -2.93 c -0.03866,0 -0.07,0.03134 -0.07,0.07 V 10 c 0,0.03866 0.03134,0.07 0.07,0.07 h 2.93 v 6.527 h -2.93 c -0.03866,0 -0.07,0.03134 -0.07,0.07 v 6.666 c 0,0.03866 0.03134,0.07 0.07,0.07 h 2.93 V 33 c 0,0.03866 0.03134,0.07 0.07,0.07 h 12.374 V 36 c 0,0.03866 0.03134,0.07 0.07,0.07 h 9.445 c 0.03866,0 0.07,-0.03134 0.07,-0.07 v -2.93 h 9.304 V 36 c 0,0.03866 0.03134,0.07 0.07,0.07 h 9.445 c 0.03866,0 0.07,-0.03134 0.07,-0.07 V 33.07 H 4.652 V 36 c 0,0.03866 0.03134,0.07 0.07,0.07 h 9.445 c 0.03866,0 0.07,-0.03134 0.07,-0.07 v -2.93 h 9.304 V 36 c 0,0.03866 0.03134,0.07 0.07,0.07 h 9.445 c 0.03866,0 0.07,-0.03134 0.07,-0.07 V 33.07 H 45.5 c 0.03866,0 0.07,-0.03134 0.07,-0.07 v -9.597 h 2.93 c 0.03866,0 0.07,-0.03134 0.07,-0.07 v -6.666 c 0,-0.03866 -0.03134,-0.07 -0.07,-0.07 H 45.57 V 10.07 h 2.93 c 0.03866,0 0.07,-0.03134 0.07,-0.07 V 3.333 c 0,-0.03866 -0.03134,-0.07 -0.07,-0.07 h -2.93 v -6.526 h 2.93 c 0.03866,0 0.07,-0.03134 0.07,-0.07 V -10 c 0,-0.03866 -0.03134,-0.07 -0.07,-0.07 h -2.379"
         id="path6"
         inkscape:connector-curvature="0"
         style="fill:none;stroke:#ff0000;stroke-width:0.1;stroke-opacity:1"
         sodipodi:nodetypes="cccsssscsscssssccssssccssssccsssscsscssssccssssccssssccsssscsscssssccssssccssssccsssscsscssssccssssccssssc" />
    </g>
  </g>
  <g
     transform="matrix(0.99999998,0,0,-0.99999998,49.316865,340.32408)"
     id="global-translation-frame-9"
     style="stroke:#ff0000;stroke-opacity:1">
    <g
       id="operation-1-5"
       style="stroke:#ff0000;stroke-opacity:1">
      <title
         id="title845">2D Profile7 (Op: 1/1)</title>
      <path
         id="path847"
         d="m -24.236,4.07 h 0.555 v 2.86 h -9.305 V 4.07 h 8.75 m 18.889,0 h 0.555 v 2.86 h -9.305 V 4.07 h 8.75 m 18.889,0 h 0.555 V 6.93 H 4.792 V 4.07 h 8.75 M 23.681,4.905 V 4.21 4.07 h 9.305 V 6.93 H 23.681 V 4.905 m 0,7.165 H 48.5 A 0.07,0.07 0 0 0 48.57,12 V 4 A 0.07,0.07 0 0 0 48.5,3.93 H 42.57 V -3.93 H 48.5 A 0.07,0.07 0 0 0 48.57,-4 v -8 a 0.07,0.07 0 0 0 -0.07,-0.07 h -97 a 0.07,0.07 0 0 0 -0.07,0.07 v 8 a 0.07,0.07 0 0 0 0.07,0.07 h 5.93 V 3.93 H -48.5 A 0.07,0.07 0 0 0 -48.57,4 v 8 a 0.07,0.07 0 0 0 0.07,0.07 h 72.181"
         inkscape:connector-curvature="0"
         style="fill:none;stroke:#ff0000;stroke-width:0.1;stroke-opacity:1" />
    </g>
  </g>
  <g
     transform="matrix(0.99999998,0,0,-0.99999998,49.338383,314.71115)"
     id="global-translation-frame-74"
     style="stroke:#ff0000;stroke-opacity:1">
    <g
       id="operation-1-9"
       style="stroke:#ff0000;stroke-opacity:1">
      <title
         id="title885">2D Profile9 (Op: 1/1)</title>
      <path
         id="path887"
         d="M 24.236,6.93 H 23.681 V 4.07 h 9.305 v 2.86 h -8.75 m -18.889,0 H 4.792 V 4.07 h 9.305 v 2.86 h -8.75 m -18.889,0 h -0.555 V 4.07 h 9.305 v 2.86 h -8.75 M -23.681,6.095 V 6.79 6.93 h -9.305 V 4.07 h 9.305 v 2.025 m 0,5.975 H 48.5 A 0.07,0.07 0 0 0 48.57,12 V 4 A 0.07,0.07 0 0 0 48.5,3.93 H 42.57 V -3.93 H 48.5 A 0.07,0.07 0 0 0 48.57,-4 v -8 a 0.07,0.07 0 0 0 -0.07,-0.07 h -97 a 0.07,0.07 0 0 0 -0.07,0.07 v 8 a 0.07,0.07 0 0 0 0.07,0.07 h 5.93 V 3.93 H -48.5 A 0.07,0.07 0 0 0 -48.57,4 v 8 a 0.07,0.07 0 0 0 0.07,0.07 h 24.819"
         inkscape:connector-curvature="0"
         style="fill:none;stroke:#ff0000;stroke-width:0.1;stroke-opacity:1" />
    </g>
  </g>
  <g
     transform="matrix(0.99999996,0,0,-0.99999996,36.139352,210.63263)"
     id="global-translation-frame-3"
     style="stroke:#ff0000;stroke-opacity:1">
    <g
       id="operation-1-2"
       style="stroke:#ff0000;stroke-opacity:1">
      <title
         id="title905">2D Profile10 (Op: 1/1)</title>
      <path
         id="path907"
         d="m -16.737,14.383 v 0.547 h -6.526 v -2.86 h 6.526 v 2.313 M -9.93,12.618 V 12.07 h 3.68 A 0.07,0.07 0 0 0 -6.18,12 V 9.4 A 0.63,0.63 0 0 1 -5.55,8.77 H 6.05 A 0.63,0.63 0 0 1 6.68,9.4 V 12 a 0.07,0.07 0 0 0 0.07,0.07 h 3.18 v 2.86 H 6.75 A 0.07,0.07 0 0 0 6.68,15 0.63,0.63 0 0 1 6.05,15.63 H -5.55 A 0.63,0.63 0 0 1 -6.18,15 0.07,0.07 0 0 0 -6.25,14.93 H -9.93 V 12.618 M 3.75,6.93 h -10 A 0.93,0.93 0 0 1 -7.18,6 V 1 a 0.93,0.93 0 0 1 0.93,-0.93 h 13 A 0.93,0.93 0 0 1 7.68,1 V 6 A 0.93,0.93 0 0 1 6.75,6.93 h -3 m 12.987,5.687 V 12.07 h 6.526 v 2.86 h -6.526 v -2.313 m 0.148,7.453 H 30 A 0.07,0.07 0 0 0 30.07,20 V 12.07 H 36 A 0.07,0.07 0 0 0 36.07,12 V 4 A 0.07,0.07 0 0 0 36,3.93 H 30.07 V -3.93 H 33 A 0.07,0.07 0 0 0 33.07,-4 v -8 A 0.07,0.07 0 0 0 33,-12.07 H 30.07 V -20 A 0.07,0.07 0 0 0 30,-20.07 H 20 19.996 l -0.154,0.009 -0.009,0.001 -0.15,0.029 a 0.07,0.07 0 0 0 -0.01,0.003 l -0.145,0.052 a 0.07,0.07 0 0 0 -0.011,0.005 l -0.14,0.081 a 0.07,0.07 0 0 0 -0.009,0.006 l -0.135,0.11 a 0.07,0.07 0 0 0 -0.008,0.007 l -0.129,0.143 -0.006,0.006 -0.124,0.176 -0.004,0.006 -0.12,0.21 -0.002,0.005 -0.115,0.246 -0.002,0.004 -0.11,0.28 -0.001,0.004 -0.106,0.315 -0.001,0.003 -0.101,0.349 v 0.002 l -0.097,0.381 v 0.002 l -0.093,0.413 -10e-4,0.002 -0.175,0.91 v 0.003 l -0.163,1.008 v 10e-4 l -0.154,1.085 v 10e-4 l -0.147,1.136 -0.143,1.161 -0.144,1.158 -0.147,1.128 -0.153,1.071 -0.163,0.99 -0.174,0.888 -0.093,0.4 -0.096,0.368 -0.1,0.334 -0.105,0.3 -0.108,0.264 -0.113,0.229 -0.116,0.194 -0.12,0.158 -0.123,0.126 -0.126,0.095 -0.129,0.067 -0.134,0.044 -0.141,0.024 -0.148,0.007 h -29.996 l -0.148,-0.007 -0.141,-0.024 -0.134,-0.044 -0.129,-0.067 -0.126,-0.095 -0.123,-0.126 -0.12,-0.158 -0.116,-0.194 -0.113,-0.229 -0.108,-0.264 -0.105,-0.3 -0.1,-0.334 -0.096,-0.368 -0.093,-0.4 -0.174,-0.888 -0.163,-0.99 -0.153,-1.071 -0.147,-1.128 -0.144,-1.158 -0.143,-1.161 -0.147,-1.136 v -10e-4 l -0.154,-1.085 v -10e-4 l -0.163,-1.008 v -0.003 l -0.175,-0.91 -10e-4,-0.002 -0.093,-0.413 v -0.002 l -0.097,-0.381 v -0.002 l -0.101,-0.349 -0.001,-0.003 -0.106,-0.315 -0.001,-0.004 -0.11,-0.28 -0.002,-0.004 -0.115,-0.246 -0.002,-0.005 -0.12,-0.21 -0.004,-0.006 -0.124,-0.176 -0.006,-0.006 -0.129,-0.143 a 0.07,0.07 0 0 0 -0.008,-0.007 l -0.135,-0.11 a 0.07,0.07 0 0 0 -0.009,-0.006 l -0.14,-0.081 a 0.07,0.07 0 0 0 -0.011,-0.005 l -0.145,-0.052 a 0.07,0.07 0 0 0 -0.01,-0.003 l -0.15,-0.029 -0.009,-0.001 -0.154,-0.009 H -20 -30 a 0.07,0.07 0 0 0 -0.07,0.07 v 7.93 H -33 a 0.07,0.07 0 0 0 -0.07,0.07 v 8 a 0.07,0.07 0 0 0 0.07,0.07 h 2.93 V 3.93 H -36 A 0.07,0.07 0 0 0 -36.07,4 v 8 a 0.07,0.07 0 0 0 0.07,0.07 h 5.93 V 20 a 0.07,0.07 0 0 0 0.07,0.07 h 46.885"
         inkscape:connector-curvature="0"
         style="fill:none;stroke:#ff0000;stroke-width:0.1;stroke-opacity:1" />
    </g>
  </g>
  <g
     transform="matrix(0.99999996,0,0,-0.99999996,298.06965,81.622383)"
     id="global-translation-frame-36"
     style="stroke:#ff0000;stroke-opacity:1">
    <g
       id="operation-1-09"
       transform="translate(-248.7988,-198.50001)"
       style="stroke:#ff0000;stroke-opacity:1">
      <title
         id="title925">2D Profile11 (Op: 1/1)</title>
      <path
         id="path927"
         d="m 24.227,14.93 h -0.546 v -2.86 h 9.305 v 2.86 h -8.759 m -18.6,0 H 4.932 4.792 v -2.86 h 9.305 v 2.86 h -8.47 m -19.177,0 h -0.547 v -2.86 h 9.305 v 2.86 h -8.758 m -10.131,-0.844 v 0.695 0.149 h -9.305 v -2.86 h 9.305 v 2.016 m 0,5.984 H 48.5 A 0.07,0.07 0 0 0 48.57,20 V 12 A 0.07,0.07 0 0 0 48.5,11.93 H 42.57 V 4.07 H 48.5 A 0.07,0.07 0 0 0 48.57,4 V -4 A 0.07,0.07 0 0 0 48.5,-4.07 h -5.93 v -7.86 H 45.5 A 0.07,0.07 0 0 0 45.57,-12 v -8 a 0.07,0.07 0 0 0 -0.07,-0.07 h -91 a 0.07,0.07 0 0 0 -0.07,0.07 v 8 a 0.07,0.07 0 0 0 0.07,0.07 h 2.93 v 7.86 H -48.5 A 0.07,0.07 0 0 0 -48.57,-4 v 8 a 0.07,0.07 0 0 0 0.07,0.07 h 5.93 v 7.86 H -48.5 A 0.07,0.07 0 0 0 -48.57,12 v 8 a 0.07,0.07 0 0 0 0.07,0.07 h 24.819"
         inkscape:connector-curvature="0"
         style="fill:none;stroke:#ff0000;stroke-width:0.1;stroke-opacity:1" />
    </g>
  </g>
  <g
     transform="matrix(0.99999996,0,0,-0.99999996,159.20603,28.057774)"
     id="global-translation-frame-57"
     style="stroke:#ff0000;stroke-opacity:1">
    <g
       id="operation-1-02"
       style="stroke:#ff0000;stroke-opacity:1">
      <title
         id="title945">2D Profile13 (Op: 1/1)</title>
      <path
         id="path947"
         d="m -85.90638,-125.38051 h -0.546 v -2.86 h 9.305 v 2.86 h -8.759 m -18.6,0 h -0.695 -0.14 v -2.86 h 9.305 v 2.86 h -8.47 m -19.177,0 h -0.547 v -2.86 h 9.305 v 2.86 h -8.758 m -10.131,-0.844 v 0.695 0.149 h -9.305 v -2.86 h 9.305 v 2.016 m 0,5.984 h 72.181 a 0.07,0.07 0 0 0 0.07,-0.07 v -8 a 0.07,0.07 0 0 0 -0.07,-0.07 h -5.93 v -7.86 h 5.93 a 0.07,0.07 0 0 0 0.07,-0.07 v -8 a 0.07,0.07 0 0 0 -0.07,-0.07 h -5.93 v -7.86 h 2.93 a 0.07,0.07 0 0 0 0.07,-0.07 v -8 a 0.07,0.07 0 0 0 -0.07,-0.07 h -91 a 0.07,0.07 0 0 0 -0.07,0.07 v 8 a 0.07,0.07 0 0 0 0.07,0.07 h 2.93 v 7.86 h -5.93 a 0.07,0.07 0 0 0 -0.07,0.07 v 8 a 0.07,0.07 0 0 0 0.07,0.07 h 5.93 v 7.86 h -5.93 a 0.07,0.07 0 0 0 -0.07,0.07 v 8 a 0.07,0.07 0 0 0 0.07,0.07 h 24.819"
         inkscape:connector-curvature="0"
         style="fill:none;stroke:#ff0000;stroke-width:0.1;stroke-opacity:1" />
    </g>
  </g>
  <g
     transform="matrix(1,0,0,-1,48.86148,110.38416)"
     id="global-translation-frame-2"
     style="stroke:#ff0000;stroke-opacity:1">
    <g
       id="operation-1-8"
       style="stroke:#ff0000;stroke-opacity:1">
      <title
         id="title965">2D Profile14 (Op: 1/1)</title>
      <path
         id="path967"
         d="M -37.07,26 A 0.93,0.93 0 0 1 -38,26.93 0.93,0.93 0 0 1 -38.93,26 0.93,0.93 0 0 1 -38,25.07 0.93,0.93 0 0 1 -37.07,26 m 74.628,-0.818 a 0.93,0.93 0 0 1 1.26,0.376 0.93,0.93 0 0 1 -0.376,1.26 0.93,0.93 0 0 1 -1.26,-0.376 0.93,0.93 0 0 1 0.376,-1.26 m 0.434,-50.252 a 0.93,0.93 0 0 1 -0.922,-0.938 0.93,0.93 0 0 1 0.938,-0.922 0.93,0.93 0 0 1 0.922,0.938 0.93,0.93 0 0 1 -0.938,0.922 m 4.578,0 V -30 A 0.07,0.07 0 0 0 42.5,-30.07 H 33.126 V -36 a 0.07,0.07 0 0 0 -0.07,-0.07 h -9.445 a 0.07,0.07 0 0 0 -0.07,0.07 v 5.93 H 14.237 V -36 a 0.07,0.07 0 0 0 -0.07,-0.07 H 4.722 A 0.07,0.07 0 0 0 4.652,-36 v 5.93 H -4.652 V -36 a 0.07,0.07 0 0 0 -0.07,-0.07 h -9.445 a 0.07,0.07 0 0 0 -0.07,0.07 v 5.93 h -9.304 V -36 a 0.07,0.07 0 0 0 -0.07,-0.07 h -9.445 a 0.07,0.07 0 0 0 -0.07,0.07 v 5.93 H -42.5 a 0.07,0.07 0 0 0 -0.07,0.07 v 6.597 h -5.93 a 0.07,0.07 0 0 0 -0.07,0.07 v 6.666 a 0.07,0.07 0 0 0 0.07,0.07 h 5.93 v 6.527 h -5.93 a 0.07,0.07 0 0 0 -0.07,0.07 v 6.667 a 0.07,0.07 0 0 0 0.07,0.07 h 5.93 v 6.526 h -5.93 a 0.07,0.07 0 0 0 -0.07,0.07 V 10 a 0.07,0.07 0 0 0 0.07,0.07 h 5.93 v 6.527 h -5.93 a 0.07,0.07 0 0 0 -0.07,0.07 v 6.666 a 0.07,0.07 0 0 0 0.07,0.07 h 5.93 V 30 a 0.07,0.07 0 0 0 0.07,0.07 h 9.374 V 36 a 0.07,0.07 0 0 0 0.07,0.07 h 9.445 a 0.07,0.07 0 0 0 0.07,-0.07 v -5.93 h 9.304 V 36 a 0.07,0.07 0 0 0 0.07,0.07 h 9.445 A 0.07,0.07 0 0 0 -4.652,36 V 30.07 H 4.652 V 36 a 0.07,0.07 0 0 0 0.07,0.07 h 9.445 A 0.07,0.07 0 0 0 14.237,36 v -5.93 h 9.304 V 36 a 0.07,0.07 0 0 0 0.07,0.07 h 9.445 A 0.07,0.07 0 0 0 33.126,36 V 30.07 H 42.5 A 0.07,0.07 0 0 0 42.57,30 v -6.597 h 5.93 a 0.07,0.07 0 0 0 0.07,-0.07 V 16.667 A 0.07,0.07 0 0 0 48.5,16.597 H 42.57 V 10.07 H 48.5 A 0.07,0.07 0 0 0 48.57,10 V 6.75 A 0.07,0.07 0 0 0 48.5,6.68 H 42.57 V 6 A 0.07,0.07 0 0 0 42.5,5.93 H 33.07 V -5.43 h 9.43 a 0.07,0.07 0 0 0 0.07,-0.07 v -0.68 h 5.93 a 0.07,0.07 0 0 0 0.07,-0.07 V -10 a 0.07,0.07 0 0 0 -0.07,-0.07 h -5.93 v -6.527 h 5.93 a 0.07,0.07 0 0 0 0.07,-0.07 v -6.666 a 0.07,0.07 0 0 0 -0.07,-0.07 h -5.93 v -1.667"
         inkscape:connector-curvature="0"
         style="fill:none;stroke:#ff0000;stroke-width:0.1;stroke-opacity:1" />
    </g>
  </g>
  <g
     transform="matrix(-0.99999996,0,0,0.99999996,52.387241,238.71034)"
     id="global-translation-frame-24"
     style="stroke:#ff0000;stroke-opacity:1">
    <g
       id="operation-1-1"
       style="stroke:#ff0000;stroke-opacity:1">
      <title
         id="title985">2D Profile16 (Op: 1/1)</title>
      <path
         id="path987"
         d="m 17.283,14.93 h -0.546 v -2.86 h 6.526 v 2.86 h -5.98 m -13.044,0 H 3.543 3.403 V 12.07 H 9.93 v 2.86 H 4.239 m -13.622,0 H -9.93 v -2.86 h 6.527 v 2.86 h -5.98 m -7.354,-0.844 v 0.695 0.149 h -6.526 v -2.86 h 6.526 v 2.016 m 0,5.984 H 30 A 0.07,0.07 0 0 0 30.07,20 V 12.07 H 36 A 0.07,0.07 0 0 0 36.07,12 V 4 A 0.07,0.07 0 0 0 36,3.93 H 30.07 V -3.93 H 33 A 0.07,0.07 0 0 0 33.07,-4 v -8 A 0.07,0.07 0 0 0 33,-12.07 H 30.07 V -20 A 0.07,0.07 0 0 0 30,-20.07 H 20 19.996 l -0.154,0.009 -0.009,0.001 -0.15,0.029 a 0.07,0.07 0 0 0 -0.01,0.003 l -0.145,0.052 a 0.07,0.07 0 0 0 -0.011,0.005 l -0.14,0.081 a 0.07,0.07 0 0 0 -0.009,0.006 l -0.135,0.11 a 0.07,0.07 0 0 0 -0.008,0.007 l -0.129,0.143 -0.006,0.006 -0.124,0.176 -0.004,0.006 -0.12,0.21 -0.002,0.005 -0.115,0.246 -0.002,0.004 -0.11,0.28 -0.001,0.004 -0.106,0.315 -0.001,0.003 -0.101,0.349 v 0.002 l -0.097,0.381 v 0.002 l -0.093,0.413 -10e-4,0.002 -0.175,0.91 v 0.003 l -0.163,1.008 v 10e-4 l -0.154,1.085 v 10e-4 l -0.147,1.136 -0.143,1.161 -0.144,1.158 -0.147,1.128 -0.153,1.071 -0.163,0.99 -0.174,0.888 -0.093,0.4 -0.096,0.368 -0.1,0.334 -0.105,0.3 -0.108,0.264 -0.113,0.229 -0.116,0.194 -0.12,0.158 -0.123,0.126 -0.126,0.095 -0.129,0.067 -0.134,0.044 -0.141,0.024 -0.148,0.007 h -29.996 l -0.148,-0.007 -0.141,-0.024 -0.134,-0.044 -0.129,-0.067 -0.126,-0.095 -0.123,-0.126 -0.12,-0.158 -0.116,-0.194 -0.113,-0.229 -0.108,-0.264 -0.105,-0.3 -0.1,-0.334 -0.096,-0.368 -0.093,-0.4 -0.174,-0.888 -0.163,-0.99 -0.153,-1.071 -0.147,-1.128 -0.144,-1.158 -0.143,-1.161 -0.147,-1.136 v -10e-4 l -0.154,-1.085 v -10e-4 l -0.163,-1.008 v -0.003 l -0.175,-0.91 -10e-4,-0.002 -0.093,-0.413 v -0.002 l -0.097,-0.381 v -0.002 l -0.101,-0.349 -0.001,-0.003 -0.106,-0.315 -0.001,-0.004 -0.11,-0.28 -0.002,-0.004 -0.115,-0.246 -0.002,-0.005 -0.12,-0.21 -0.004,-0.006 -0.124,-0.176 -0.006,-0.006 -0.129,-0.143 a 0.07,0.07 0 0 0 -0.008,-0.007 l -0.135,-0.11 a 0.07,0.07 0 0 0 -0.009,-0.006 l -0.14,-0.081 a 0.07,0.07 0 0 0 -0.011,-0.005 l -0.145,-0.052 a 0.07,0.07 0 0 0 -0.01,-0.003 l -0.15,-0.029 -0.009,-0.001 -0.154,-0.009 H -20 -30 a 0.07,0.07 0 0 0 -0.07,0.07 v 7.93 H -33 a 0.07,0.07 0 0 0 -0.07,0.07 v 8 a 0.07,0.07 0 0 0 0.07,0.07 h 2.93 V 3.93 H -36 A 0.07,0.07 0 0 0 -36.07,4 v 8 a 0.07,0.07 0 0 0 0.07,0.07 h 5.93 V 20 a 0.07,0.07 0 0 0 0.07,0.07 h 13.263"
         inkscape:connector-curvature="0"
         style="fill:none;stroke:#ff0000;stroke-width:0.1;stroke-opacity:1" />
    </g>
  </g>
  <g
     transform="matrix(0.99999999,0,0,-0.99999999,49.54799,382.6203)"
     id="global-translation-frame-75"
     style="stroke:#ff0000;stroke-opacity:1">
    <g
       id="operation-1-6"
       style="stroke:#ff0000;stroke-opacity:1">
      <title
         id="title1005">2D Profile2 (Op: 1/1)</title>
      <path
         id="path1007"
         d="m -32.986,-9 a 0.07,0.07 0 0 0 -0.07,-0.07 H -45.5 A 0.07,0.07 0 0 0 -45.57,-9 v 2.93 H -48.5 A 0.07,0.07 0 0 0 -48.57,-6 v 8 a 0.07,0.07 0 0 0 0.07,0.07 h 2.93 V 9 a 0.07,0.07 0 0 0 0.07,0.07 h 91 A 0.07,0.07 0 0 0 45.57,9 V 2.07 H 48.5 A 0.07,0.07 0 0 0 48.57,2 V -6 A 0.07,0.07 0 0 0 48.5,-6.07 H 45.57 V -9 A 0.07,0.07 0 0 0 45.5,-9.07 H 33.056 A 0.07,0.07 0 0 0 32.986,-9 v 2.93 H 23.681 V -9 a 0.07,0.07 0 0 0 -0.07,-0.07 H 14.167 A 0.07,0.07 0 0 0 14.097,-9 v 2.93 H 4.792 V -9 A 0.07,0.07 0 0 0 4.722,-9.07 H -4.722 A 0.07,0.07 0 0 0 -4.792,-9 v 2.93 h -9.305 V -9 a 0.07,0.07 0 0 0 -0.07,-0.07 h -9.444 a 0.07,0.07 0 0 0 -0.07,0.07 v 2.93 h -9.305 V -9"
         inkscape:connector-curvature="0"
         style="fill:none;stroke:#ff0000;stroke-width:0.1;stroke-opacity:1" />
    </g>
  </g>
  <g
     transform="matrix(0,-1,-1,0,109.32394,228.62323)"
     id="global-translation-frame-6"
     style="stroke:#ff0000;stroke-opacity:1">
    <g
       id="operation-1-7"
       style="stroke:#ff0000;stroke-opacity:1">
      <title
         id="title1025">2D Profile3 (Op: 1/1)</title>
      <path
         id="path1027"
         d="m -23.263,-9 a 0.07,0.07 0 0 0 -0.07,-0.07 H -36 A 0.07,0.07 0 0 0 -36.07,-9 v 3 a 0.07,0.07 0 0 0 0.07,0.07 h 2.93 V 1.93 H -36 A 0.07,0.07 0 0 0 -36.07,2 V 9 A 0.07,0.07 0 0 0 -36,9.07 H 36 A 0.07,0.07 0 0 0 36.07,9 V 2 A 0.07,0.07 0 0 0 36,1.93 H 33.07 V -5.93 H 36 A 0.07,0.07 0 0 0 36.07,-6 V -9 A 0.07,0.07 0 0 0 36,-9.07 H 23.333 A 0.07,0.07 0 0 0 23.263,-9 v 2.93 H 16.737 V -9 a 0.07,0.07 0 0 0 -0.07,-0.07 H 10 A 0.07,0.07 0 0 0 9.93,-9 v 2.93 H 3.403 V -9 A 0.07,0.07 0 0 0 3.333,-9.07 H -3.333 A 0.07,0.07 0 0 0 -3.403,-9 v 2.93 H -9.93 V -9 A 0.07,0.07 0 0 0 -10,-9.07 h -6.667 a 0.07,0.07 0 0 0 -0.07,0.07 v 2.93 h -6.526 V -9"
         inkscape:connector-curvature="0"
         style="fill:none;stroke:#ff0000;stroke-width:0.1;stroke-opacity:1" />
    </g>
  </g>
  <g
     transform="matrix(1,0,0,-1,145.05413,402.78796)"
     id="global-translation-frame-28"
     style="stroke:#ff0000;stroke-opacity:1">
    <g
       id="operation-1-44"
       style="stroke:#ff0000;stroke-opacity:1">
      <title
         id="title1045">2D Profile4 (Op: 1/1)</title>
      <path
         id="path1047"
         d="m -117.34261,-5.6025905 h -0.559 v -2.93 a 0.07,0.07 0 0 0 -0.07,-0.07 h -6.667 a 0.07,0.07 0 0 0 -0.07,0.07 v 2.93 h -6.526 v -2.93 a 0.07,0.07 0 0 0 -0.07,-0.07 h -12.667 a 0.07,0.07 0 0 0 -0.07,0.07 v 3 a 0.07,0.07 0 0 0 0.07,0.07 h 2.93 v 7.86 h -2.93 a 0.07,0.07 0 0 0 -0.07,0.07 v 7 a 0.07,0.07 0 0 0 0.07,0.07 h 72.000004 a 0.07,0.07 0 0 0 0.07,-0.07 v -7 a 0.07,0.07 0 0 0 -0.07,-0.07 h -2.93 v -7.86 h 2.93 a 0.07,0.07 0 0 0 0.07,-0.07 v -3 a 0.07,0.07 0 0 0 -0.07,-0.07 h -12.667 a 0.07,0.07 0 0 0 -0.07,0.07 v 2.93 h -6.526 v -2.93 a 0.07,0.07 0 0 0 -0.07,-0.07 h -6.667 a 0.07,0.07 0 0 0 -0.07,0.07 v 2.93 h -6.527004 v -2.93 a 0.07,0.07 0 0 0 -0.07,-0.07 h -6.666 a 0.07,0.07 0 0 0 -0.07,0.07 v 2.93 h -5.968"
         inkscape:connector-curvature="0"
         style="fill:none;stroke:#ff0000;stroke-width:0.1;stroke-opacity:1" />
    </g>
  </g>
  <g
     transform="matrix(0.99999999,0,0,-0.99999999,49.343499,362.60933)"
     id="global-translation-frame-51"
     style="stroke:#ff0000;stroke-opacity:1">
    <g
       id="operation-1-3"
       style="stroke:#ff0000;stroke-opacity:1">
      <title
         id="title1065">2D Profile5 (Op: 1/1)</title>
      <path
         id="path1067"
         d="m 24.241,-6.07 h -0.56 V -9 a 0.07,0.07 0 0 0 -0.07,-0.07 H 14.167 A 0.07,0.07 0 0 0 14.097,-9 v 2.93 H 4.792 V -9 A 0.07,0.07 0 0 0 4.722,-9.07 H -4.722 A 0.07,0.07 0 0 0 -4.792,-9 v 2.93 h -9.305 V -9 a 0.07,0.07 0 0 0 -0.07,-0.07 h -9.444 a 0.07,0.07 0 0 0 -0.07,0.07 v 2.93 h -9.305 V -9 a 0.07,0.07 0 0 0 -0.07,-0.07 H -45.5 A 0.07,0.07 0 0 0 -45.57,-9 v 2.93 H -48.5 A 0.07,0.07 0 0 0 -48.57,-6 v 8 a 0.07,0.07 0 0 0 0.07,0.07 h 2.93 V 9 a 0.07,0.07 0 0 0 0.07,0.07 h 91 A 0.07,0.07 0 0 0 45.57,9 V 2.07 H 48.5 A 0.07,0.07 0 0 0 48.57,2 V -6 A 0.07,0.07 0 0 0 48.5,-6.07 H 45.57 V -9 A 0.07,0.07 0 0 0 45.5,-9.07 H 33.056 A 0.07,0.07 0 0 0 32.986,-9 v 2.93 h -8.745"
         inkscape:connector-curvature="0"
         style="fill:none;stroke:#ff0000;stroke-width:0.1;stroke-opacity:1" />
    </g>
  </g>
  <g
     transform="matrix(0.99999997,0,0,-0.99999997,-51.387812,406.43203)"
     id="global-translation-frame-7-5"
     style="stroke:#ff0000;stroke-opacity:1">
    <g
       id="operation-1-0-6"
       transform="rotate(90,28.132217,131.25446)"
       style="stroke:#ff0000;stroke-opacity:1">
      <title
         id="title825-7">2D Profile6 (Op: 1/1)</title>
      <path
         id="path827-9"
         d="m -17.233573,0.44757591 h 0.555 V 3.3075759 h -6.526 V 0.44757591 h 5.971 m 7.3619992,0.83699999 v -0.69699999 -0.14 h 3.68 a 0.07,0.07 0 0 0 0.07,-0.07 V -2.2224241 a 0.63,0.63 0 0 1 0.63,-0.63 h 11.6 a 0.63,0.63 0 0 1 0.63,0.63 v 2.60000001 a 0.07,0.07 0 0 0 0.07,0.07 H 9.9884265 V 3.3075759 H 6.8084262 a 0.07,0.07 0 0 0 -0.07,0.07 0.63,0.63 0 0 1 -0.63,0.63 h -11.6 a 0.63,0.63 0 0 1 -0.63,-0.63 0.07,0.07 0 0 0 -0.07,-0.07 h -3.68 v -2.023 m 13.68,-5.977 h -10 a 0.93,0.93 0 0 1 -0.93,-0.93 v -4.9999999 a 0.93,0.93 0 0 1 0.93,-0.93 h 13 a 0.93,0.93 0 0 1 0.93,0.93 v 4.9999999 a 0.93,0.93 0 0 1 -0.93,0.93 h -3 m 12.9870008,5.975 v -0.69499999 -0.14 h 6.526 V 3.3075759 h -6.526 v -2.025 m 0,7.165 h 13.263 a 0.07,0.07 0 0 0 0.07,-0.07 V 0.44757591 h 5.93 a 0.07,0.07 0 0 0 0.07,-0.07 V -7.6224245 a 0.07,0.07 0 0 0 -0.07,-0.07 h -5.93 v -7.9299995 a 0.07,0.07 0 0 0 -0.07,-0.07 h -60 a 0.07,0.07 0 0 0 -0.07,0.07 v 7.9299995 h -5.93 a 0.07,0.07 0 0 0 -0.07,0.07 v 8.00000041 a 0.07,0.07 0 0 0 0.07,0.07 h 5.93 V 8.3775759 a 0.07,0.07 0 0 0 0.07,0.07 h 46.737"
         inkscape:connector-curvature="0"
         style="fill:none;stroke:#ff0000;stroke-width:0.1;stroke-opacity:1" />
    </g>
  </g>
  <g
     transform="matrix(0,0.99999997,0.99999997,0,20.84349,182.30808)"
     id="global-translation-frame-5-7"
     style="stroke:#ff0000;stroke-opacity:1">
    <g
       id="operation-1-4-1"
       transform="translate(194.98682,90.966584)"
       style="stroke:#ff0000;stroke-opacity:1">
      <title
         id="title865-1">2D Profile8 (Op: 1/1)</title>
      <path
         id="path867-2"
         d="M 16.737,4.905 V 4.21 4.07 h 6.526 V 6.93 H 16.737 V 4.905 M 3.403,4.625 V 4.07 H 9.93 V 6.93 H 3.403 V 4.625 M -9.93,4.905 V 4.21 4.07 h 6.527 V 6.93 H -9.93 V 4.905 M -17.292,4.07 h 0.555 v 2.86 h -6.526 V 4.07 h 5.971 m 0.555,8 H 30 A 0.07,0.07 0 0 0 30.07,12 V 4.07 H 36 A 0.07,0.07 0 0 0 36.07,4 V -4 A 0.07,0.07 0 0 0 36,-4.07 H 30.07 V -12 A 0.07,0.07 0 0 0 30,-12.07 h -60 a 0.07,0.07 0 0 0 -0.07,0.07 v 7.93 H -36 A 0.07,0.07 0 0 0 -36.07,-4 V 4 A 0.07,0.07 0 0 0 -36,4.07 h 5.93 V 12 a 0.07,0.07 0 0 0 0.07,0.07 h 13.263"
         inkscape:connector-curvature="0"
         style="fill:none;stroke:#ff0000;stroke-width:0.1;stroke-opacity:1" />
    </g>
  </g>
  <path
     id="path2385-9"
     style="fill:#000000;fill-opacity:1;fill-rule:evenodd;stroke:none;stroke-width:0.22082341;stroke-linecap:butt;stroke-linejoin:miter;stroke-miterlimit:4;stroke-dasharray:none;stroke-dashoffset:75.59055328;stroke-opacity:1;paint-order:markers fill stroke"
     d="m 19.493038,49.819301 c 0.0181,-0.05623 0.7397,-1.916379 1.60354,-4.133654 l 1.57061,-4.031405 0.81833,-0.01617 0.81832,-0.01617 0.20556,0.512792 c 0.11305,0.282038 0.86401,2.150188 1.66879,4.151451 l 1.46324,3.638659 -0.79404,-0.01625 -0.79404,-0.01624 -0.36036,-0.934818 -0.36037,-0.93482 h -1.83571 -1.83572 l -0.34481,0.949425 -0.34481,0.949426 h -0.75573 c -0.69334,0 -0.75301,-0.0084 -0.7228,-0.102246 z m 5.27188,-3.085317 c 0.0417,-0.108738 -1.14439,-3.342023 -1.23938,-3.378475 -0.0363,-0.01392 -0.092,-0.008 -0.12391,0.0131 -0.0888,0.05885 -1.2611,3.326284 -1.2183,3.395546 0.0241,0.03906 0.48611,0.0608 1.29213,0.0608 1.0817,0 1.25936,-0.01254 1.28946,-0.09098 z m 4.22653,-0.931484 v -4.119045 h 0.70066 0.70066 l 0.0151,3.520177 0.0151,3.520178 2.14716,0.01532 2.14716,0.01532 v 0.583543 0.583542 h -2.86288 -2.86288 z m 7.30328,-0.02921 v -4.148258 h 0.7003 0.70031 l 0.0154,1.884242 c 0.015,1.8351 0.0185,1.884593 0.13227,1.897523 0.0864,0.0098 0.56548,-0.479505 1.84042,-1.879936 l 1.72357,-1.893215 0.95548,-0.0043 0.95548,-0.0043 -0.19164,0.219096 c -0.10541,0.120505 -0.772,0.817945 -1.48132,1.549867 -0.70932,0.731925 -1.29757,1.366383 -1.30722,1.409909 -0.0136,0.06117 2.95409,4.715836 3.21627,5.044612 0.0461,0.05783 -0.14085,0.0728 -0.89834,0.0719 l -0.95658,-0.0011 -1.16177,-1.990201 c -0.63897,-1.094613 -1.19962,-2.004727 -1.24588,-2.022477 -0.0545,-0.0209 -0.3494,0.243541 -0.83633,0.749781 l -0.75223,0.782058 -0.003,1.241555 -0.003,1.241557 h -0.70111 -0.70112 z m 10.86727,4.263921 c -1.34275,-0.154855 -2.29395,-0.984977 -2.59185,-2.261938 l -0.0827,-0.354732 0.24181,-0.0329 c 0.133,-0.0181 0.45521,-0.05002 0.71603,-0.07095 l 0.47423,-0.03805 0.0371,0.197813 c 0.0517,0.275431 0.2454,0.624903 0.48424,0.873538 0.68216,0.710128 2.17081,0.741232 2.90277,0.06065 0.45716,-0.425067 0.4952,-1.113333 0.0836,-1.511742 -0.25166,-0.243568 -0.43429,-0.31451 -1.60217,-0.622353 -1.20075,-0.316508 -1.54432,-0.442537 -1.98608,-0.728543 -0.6069,-0.392915 -0.90789,-0.834488 -1.01168,-1.484165 -0.18282,-1.144405 0.51781,-2.104595 1.77618,-2.434192 0.51809,-0.135702 1.63674,-0.167777 2.20118,-0.06312 0.69348,0.128587 1.42178,0.608489 1.77671,1.170725 0.1522,0.241104 0.36626,0.964326 0.30388,1.026705 -0.0184,0.01839 -0.34875,0.04797 -0.73414,0.06572 l -0.70069,0.03229 -0.0736,-0.245536 c -0.1031,-0.344115 -0.46316,-0.732698 -0.799,-0.86228 -0.42174,-0.162727 -1.34291,-0.14378 -1.75214,0.03604 -0.4461,0.196017 -0.65687,0.458774 -0.65687,0.818878 0,0.571203 0.4582,0.861345 1.9884,1.259109 1.53468,0.398928 2.12466,0.686282 2.54765,1.240859 0.29989,0.393184 0.43485,0.830503 0.43544,1.410973 0.002,1.538501 -1.05855,2.449443 -2.95579,2.539883 -0.32134,0.01532 -0.78145,0.0051 -1.02245,-0.02268 z m 10.72895,-0.161552 c -0.0156,-0.02524 -0.51506,-1.254381 -1.10993,-2.731425 -0.59486,-1.477045 -1.12332,-2.784944 -1.17436,-2.906443 l -0.0928,-0.220909 0.71298,0.01641 0.71298,0.0164 0.43625,1.168524 c 0.23994,0.642686 0.57338,1.576046 0.74098,2.07413 0.24962,0.741815 0.32471,0.905605 0.41521,0.905605 0.0847,0 0.14254,-0.09531 0.24805,-0.408982 0.0757,-0.224941 0.4169,-1.164874 0.7583,-2.088738 l 0.62075,-1.679752 h 0.68689 0.68689 l -0.11028,0.277524 c -0.0606,0.152638 -0.58797,1.480373 -1.17181,2.950522 l -1.06154,2.672998 h -0.6351 c -0.3493,0 -0.64786,-0.02064 -0.66346,-0.04589 z m 6.84424,0.157748 c -0.94678,-0.104791 -1.82197,-0.805305 -2.0899,-1.672781 -0.0654,-0.211709 -0.10511,-0.398714 -0.0882,-0.415568 0.0446,-0.04459 1.20443,-0.1882 1.25709,-0.155651 0.0245,0.01513 0.0613,0.113247 0.0818,0.218038 0.0582,0.297791 0.39773,0.713049 0.70427,0.861443 0.21839,0.105722 0.34346,0.126458 0.64644,0.107164 0.46057,-0.02933 0.78519,-0.23242 1.04615,-0.65451 0.1531,-0.247642 0.17694,-0.346588 0.19663,-0.81616 0.0209,-0.498282 0.011,-0.555982 -0.14616,-0.854702 -0.10597,-0.201383 -0.26172,-0.385808 -0.41939,-0.496623 -0.2336,-0.164182 -0.28658,-0.176276 -0.77226,-0.176276 -0.36837,0 -0.51389,-0.01968 -0.49571,-0.06706 0.0142,-0.03688 0.0439,-0.251759 0.0662,-0.477509 l 0.0404,-0.410454 0.27337,-0.0376 c 0.35066,-0.04823 0.67661,-0.234204 0.90288,-0.515149 0.1521,-0.188854 0.18248,-0.28213 0.20149,-0.618543 0.0265,-0.468714 -0.10467,-0.789979 -0.41199,-1.009176 -0.1599,-0.114051 -0.26365,-0.13638 -0.63369,-0.13638 -0.37422,0 -0.47482,0.02217 -0.65216,0.14368 -0.22134,0.151667 -0.51147,0.547896 -0.51297,0.700587 -0.002,0.212667 -0.0704,0.225409 -0.67101,0.12522 -0.56513,-0.09427 -0.58366,-0.102175 -0.56571,-0.241343 0.0338,-0.262416 0.36447,-0.900099 0.58356,-1.125452 0.45381,-0.466788 1.03868,-0.686419 1.83369,-0.68858 0.79615,-0.0021 1.19998,0.142552 1.73162,0.620535 0.57007,0.512544 0.76364,1.06809 0.60974,1.74994 -0.1149,0.509063 -0.31272,0.804055 -0.74701,1.113962 -0.47736,0.340638 -0.48561,0.438449 -0.0486,0.576209 0.40062,0.126286 0.83915,0.513432 1.06324,0.938641 0.13615,0.258371 0.15438,0.359365 0.15307,0.848337 -0.002,0.674748 -0.0729,0.931867 -0.38837,1.404273 -0.57793,0.865455 -1.58355,1.29042 -2.74848,1.161484 z m 4.86247,-0.78376 v -0.671901 h 0.6719 0.6719 v 0.671901 0.671902 h -0.6719 -0.6719 z m 5.53639,-2.409287 c -0.0133,-2.713263 -0.0258,-3.083246 -0.10464,-3.098422 -0.0492,-0.0095 -0.27271,0.129924 -0.49662,0.309779 -0.33829,0.271738 -1.3596,0.84518 -1.50529,0.84518 -0.0226,0 -0.0411,-0.26099 -0.0411,-0.57998 V 43.73694 l 0.32248,-0.147635 c 0.80838,-0.370091 1.65048,-1.111578 1.94545,-1.713017 l 0.15189,-0.309684 h 0.54288 0.54287 v 4.177473 4.177472 h -0.67139 -0.67138 z m 7.14209,-20.73854 c 0,-0.02215 0.53029,-1.402467 1.17843,-3.067376 l 1.17842,-3.027105 h 0.59223 0.59223 l 1.20908,3.023797 c 0.665,1.663088 1.20908,3.044394 1.20908,3.069568 0,0.02518 -0.24013,0.03821 -0.53364,0.02897 l -0.53363,-0.0168 -0.27191,-0.701115 -0.2719,-0.701114 h -1.39985 -1.39985 l -0.25688,0.715725 -0.25688,0.715721 h -0.51746 c -0.28461,0 -0.51747,-0.01812 -0.51747,-0.04027 z m 3.94482,-2.311385 c 0.0146,-0.04017 -0.17915,-0.62516 -0.43061,-1.299983 -0.37207,-0.998519 -0.47911,-1.230217 -0.57491,-1.244498 -0.1036,-0.01544 -0.1713,0.130213 -0.56447,1.214384 -0.24572,0.677562 -0.44676,1.270451 -0.44676,1.31753 0,0.07183 0.16005,0.0856 0.99508,0.0856 0.74292,0 1.00181,-0.01851 1.02167,-0.07303 z m -9.90429,-0.715721 v -3.067375 l 0.54044,0.0019 0.54044,0.0019 1.29232,2.116049 c 0.97623,1.5985 1.32276,2.120615 1.41683,2.134719 l 0.12452,0.01867 v -2.136611 -2.13662 h 0.46741 0.46741 v 3.067368 3.067376 h -0.54153 -0.54153 l -1.2921,-2.088737 c -0.95163,-1.538357 -1.32083,-2.088736 -1.40114,-2.088736 -0.10411,0 -0.10973,0.09431 -0.12438,2.088736 l -0.0154,2.088737 h -0.46667 -0.46667 z m -6.48531,0 v -3.067375 h 1.65442 c 2.45098,0 2.77075,0.09456 3.16131,0.934819 0.25676,0.552407 0.18815,1.258102 -0.16767,1.724606 -0.19448,0.254979 -0.68187,0.539113 -1.00887,0.58815 -0.13569,0.02035 -0.28026,0.07743 -0.32127,0.126844 -0.0629,0.07577 -0.0472,0.108984 0.10036,0.211933 0.40105,0.27989 0.9055,0.865108 1.34053,1.555153 0.25323,0.401681 0.49854,0.789485 0.54513,0.861787 l 0.0847,0.131459 h -0.61103 -0.61104 l -0.57315,-0.861787 c -1.11633,-1.678508 -1.20917,-1.762797 -1.99561,-1.811862 -0.38975,-0.02432 -0.51076,-0.01323 -0.5511,0.05048 -0.0284,0.0449 -0.0521,0.653479 -0.0526,1.352403 l -7.9e-4,1.27077 h -0.49662 -0.49662 z m 3.50557,-0.527823 c 0.40509,-0.235414 0.54721,-0.912525 0.27676,-1.318568 -0.23258,-0.34918 -0.45227,-0.412362 -1.55446,-0.447055 -0.69108,-0.02175 -1.01561,-0.01064 -1.1063,0.0379 -0.12327,0.06598 -0.12832,0.102704 -0.12832,0.933279 0,0.475529 0.0195,0.884058 0.0432,0.907841 0.0238,0.02378 0.54304,0.03474 1.15391,0.02434 0.99034,-0.01685 1.13284,-0.03177 1.31517,-0.137738 z m -8.0404,-3.430551 c 0.0453,-0.104437 0.14427,-0.327298 0.21988,-0.495246 l 0.13748,-0.305361 0.48606,-0.0014 0.48605,-0.0014 -0.45684,0.496163 c -0.43569,0.473186 -0.46838,0.496184 -0.70594,0.496623 l -0.2491,4.5e-4 z m -2.50886,6.923504 c 0.0211,-0.05623 0.55633,-1.436107 1.18938,-3.066383 l 1.151,-2.964137 0.58949,-10e-4 c 0.58671,-9.79e-4 0.58984,-2.34e-4 0.66298,0.15968 0.0583,0.127461 1.80525,4.477633 2.28764,5.696553 l 0.10983,0.277526 h -0.54803 -0.54803 l -0.28369,-0.715721 -0.2837,-0.715721 -1.38211,-0.01565 -1.38212,-0.01565 -0.14901,0.395421 c -0.082,0.217482 -0.20463,0.546599 -0.27262,0.731372 l -0.12361,0.335951 h -0.52789 c -0.47842,0 -0.52429,-0.0096 -0.48951,-0.102246 z m 3.9471,-2.262934 c 0,-0.177671 -0.89508,-2.495035 -0.97565,-2.525952 -0.0461,-0.0177 -0.10846,-0.0076 -0.13852,0.02246 -0.0933,0.09334 -0.93959,2.470034 -0.90146,2.531735 0.0217,0.03509 0.43029,0.05831 1.02584,0.05831 0.83537,0 0.98979,-0.0135 0.98979,-0.08656 z m -7.47855,-0.286961 c 0,-2.364508 -0.01,-2.655987 -0.0924,-2.687605 -0.0508,-0.01951 -0.4715,-0.03546 -0.93482,-0.03546 h -0.8424 v -0.379771 -0.37977 h 2.39548 2.39547 v 0.37977 0.379771 h -0.8424 c -0.46332,0 -0.88399,0.01596 -0.93482,0.03546 -0.0824,0.03162 -0.0924,0.323097 -0.0924,2.687605 v 2.652141 h -0.52583 -0.52584 z m -6.33924,2.706309 c -0.76003,-0.127541 -1.39339,-0.532502 -1.79733,-1.149184 -0.35012,-0.534523 -0.44347,-0.800049 -0.51133,-1.454484 -0.259,-2.497669 1.2209,-4.009451 3.56482,-3.641624 1.11521,0.175008 2.09409,1.165215 2.27941,2.305782 0.2115,1.301681 -0.084,2.458566 -0.81437,3.188335 -0.66119,0.66063 -1.64403,0.931939 -2.7212,0.751175 z m 1.46842,-0.961017 c 0.3772,-0.184544 0.62677,-0.46229 0.86263,-0.960022 0.17699,-0.373496 0.18127,-0.402689 0.18127,-1.235091 v -0.852554 l -0.22911,-0.451383 c -0.27856,-0.54881 -0.6641,-0.863641 -1.19176,-0.973182 -1.22718,-0.254763 -2.17037,0.463684 -2.35615,1.794735 -0.1963,1.40649 0.39602,2.556866 1.45368,2.823237 0.35339,0.089 0.93508,0.02274 1.27944,-0.14574 z m -10.02786,-2.159527 v -3.077288 l 1.80093,0.01906 1.80092,0.01906 0.34373,0.175885 c 1.01039,0.517013 1.10049,1.786269 0.17216,2.424983 -0.14741,0.101416 -0.25804,0.215004 -0.24585,0.252417 0.0122,0.03741 0.15166,0.129407 0.30994,0.204429 0.61671,0.292318 0.93745,0.812886 0.8866,1.438986 -0.0539,0.663009 -0.3891,1.152556 -0.97824,1.428442 -0.32153,0.150569 -0.32268,0.150658 -2.20594,0.170978 l -1.88425,0.02033 z m 2.99996,2.252469 c 0.48319,-0.05066 0.6594,-0.1377 0.88177,-0.435544 0.17061,-0.228516 0.17061,-0.83658 0,-1.065096 -0.31002,-0.415247 -0.65964,-0.500279 -1.9607,-0.476867 l -0.89857,0.01617 -0.016,0.974087 c -0.0146,0.891347 -0.007,0.976379 0.0876,1.001074 0.17616,0.04587 1.42276,0.03683 1.90587,-0.01382 z m 0.30652,-2.905984 c 0.2945,-0.152835 0.43933,-0.35901 0.4751,-0.676342 0.0384,-0.340262 -0.10404,-0.642997 -0.38447,-0.817384 -0.2012,-0.125114 -0.27221,-0.13238 -1.29377,-0.13238 h -1.08088 l -0.0163,0.842702 c -0.0122,0.633258 0.002,0.855587 0.0584,0.894546 0.0411,0.02851 0.51243,0.04106 1.04744,0.02787 0.82301,-0.02028 1.00686,-0.04168 1.19443,-0.139015 z m -8.2281,3.7764 c -0.81149,-0.13664 -1.45421,-0.559975 -1.87487,-1.234895 -0.35575,-0.570781 -0.46444,-1.007939 -0.46964,-1.88899 -0.006,-1.031198 0.23239,-1.735295 0.79416,-2.344747 0.63016,-0.68364 1.6266,-0.961747 2.79112,-0.779001 1.08592,0.170412 2.01276,1.077151 2.25121,2.202378 0.10727,0.50623 0.10727,1.336511 0,1.84274 -0.24182,1.141152 -1.17942,2.046774 -2.28042,2.202644 -0.46898,0.06639 -0.81672,0.06636 -1.21156,-1.17e-4 z m 1.33415,-0.902323 c 0.40444,-0.168983 0.70593,-0.473162 0.94157,-0.94994 l 0.22121,-0.447595 v -0.855583 -0.855584 l -0.22394,-0.441206 c -0.38192,-0.75245 -1.02633,-1.104031 -1.86323,-1.016558 -0.94486,0.09876 -1.55529,0.761889 -1.69827,1.844898 -0.18562,1.405934 0.4053,2.540118 1.46209,2.806273 0.29056,0.07318 0.88687,0.02965 1.16057,-0.0847 z m -9.90898,-2.221562 v -3.067375 l 1.67975,8.73e-4 c 1.81098,9.26e-4 2.24816,0.05217 2.60686,0.305525 0.44916,0.317249 0.64458,0.730349 0.64277,1.358758 -0.003,0.885636 -0.41049,1.350578 -1.4092,1.606116 -0.33772,0.08641 -0.31911,0.211299 0.0719,0.482755 0.1737,0.120579 0.43171,0.370351 0.57337,0.55505 0.24483,0.319225 1.1513,1.733317 1.1513,1.796029 0,0.01631 -0.26082,0.02965 -0.57959,0.02965 h -0.57959 l -0.7371,-1.075973 c -0.4054,-0.591788 -0.83983,-1.168793 -0.96539,-1.282233 -0.27558,-0.24897 -0.58442,-0.340679 -1.06931,-0.317529 l -0.36335,0.01735 -0.0157,1.329196 -0.0157,1.329196 h -0.49552 -0.49553 z m 3.48319,-0.529445 c 0.26024,-0.194438 0.37307,-0.387893 0.4073,-0.698333 0.0257,-0.233115 0.005,-0.343144 -0.10337,-0.550835 -0.2155,-0.412812 -0.39273,-0.472377 -1.52495,-0.51252 -0.52713,-0.01869 -1.02828,-0.01645 -1.11367,0.005 l -0.15525,0.03897 v 0.93899 0.938989 l 1.16435,-0.01989 c 1.06738,-0.01823 1.17778,-0.02992 1.32559,-0.140353 z m -17.47626,9.346119 c -1.38745,-0.203251 -2.23357,-0.452446 -3.17922,-0.936321 -1.23506,-0.631965 -2.39609,-1.627801 -3.19317,-2.738848 -0.43188,-0.602007 -0.9945397,-1.709832 -1.2181997,-2.398538 -0.36849,-1.134678 -0.51335,-2.502855 -0.38697,-3.654841 0.43279,-3.944874 3.2804697,-7.024357 7.2180197,-7.805559 0.79551,-0.157829 2.53743,-0.141714 3.3413,0.03091 3.55665,0.763764 6.23868,3.48757 6.95131,7.059585 0.14531,0.728343 0.14637,2.473771 0.002,3.204444 -0.25179,1.273849 -0.78926,2.540632 -1.51206,3.563828 -0.47203,0.66821 -1.3942,1.590521 -2.06522,2.065541 -0.59393,0.420447 -1.70212,0.978781 -2.38765,1.202963 -0.8181,0.267528 -1.57378,0.391366 -2.51841,0.41271 -0.48202,0.0109 -0.95527,0.0083 -1.05167,-0.0059 z m 2.41185,-0.838883 c 3.67979,-0.749893 6.33696,-3.827177 6.53551,-7.568807 0.084,-1.582813 -0.28265,-3.097419 -1.09081,-4.50616 -1.15185,-2.007855 -3.1853,-3.447784 -5.53295,-3.917997 -0.76853,-0.15393 -2.36554,-0.140073 -3.12484,0.02711 -3.27762,0.721683 -5.66598,3.12284 -6.3654397,6.399544 -0.18111,0.848415 -0.18111,2.328616 0,3.177031 0.7480697,3.504444 3.5168897,6.056604 7.0561797,6.504046 0.6164,0.07793 1.85285,0.02167 2.52235,-0.114771 z m -3.97159,-2.100593 c -0.59082,-0.233127 -1.18629,-0.591683 -1.18629,-0.714314 0,-0.05523 0.14739,-0.474795 0.32754,-0.93238 0.39737,-1.009346 0.44243,-0.832603 -0.50141,-1.966488 -0.13933,-0.167394 -0.35095,-0.169425 -1.32762,-0.01274 -0.60152,0.0965 -0.75381,0.104699 -0.81369,0.04382 -0.10582,-0.107584 -0.3628,-1.035191 -0.40742,-1.470619 -0.0281,-0.273972 -0.0182,-0.382612 0.0379,-0.417267 0.0417,-0.02577 0.4445,-0.160326 0.89511,-0.299013 0.45062,-0.138687 0.85534,-0.288188 0.89938,-0.332225 0.0728,-0.07277 0.27914,-0.846526 0.34829,-1.305888 0.036,-0.239168 -0.003,-0.289734 -0.75804,-0.980347 -0.34544,-0.316011 -0.62808,-0.598193 -0.62808,-0.62707 0,-0.209347 1.05138,-1.507547 1.22092,-1.507547 0.0579,0 0.20789,0.07388 0.33322,0.164186 0.77362,0.557429 1.22176,0.82906 1.36779,0.82906 0.0886,0 0.37125,-0.105167 0.62806,-0.233705 0.25681,-0.128538 0.4924,-0.233705 0.52354,-0.233705 0.0311,0 0.10488,-0.05333 0.16387,-0.118509 0.0871,-0.09623 0.12048,-0.294541 0.17762,-1.054696 0.0387,-0.514903 0.0887,-0.954545 0.11117,-0.976982 0.0224,-0.02244 0.46023,-0.04079 0.97287,-0.04079 0.7233,0 0.9431,0.01782 0.98124,0.07954 0.027,0.04375 0.067,0.424976 0.0889,0.847179 0.0578,1.118131 0.0439,1.091794 0.75825,1.439779 0.32954,0.160543 0.67108,0.291896 0.75897,0.291896 0.10507,0 0.4066,-0.170095 0.88039,-0.496623 0.39632,-0.273142 0.76015,-0.496623 0.80851,-0.496623 0.15653,0 1.20844,1.291487 1.20906,1.484425 1.2e-4,0.03513 -0.31902,0.368368 -0.70919,0.740532 -0.80252,0.765487 -0.74514,0.592597 -0.52123,1.570659 0.0696,0.304129 0.15397,0.58595 0.18743,0.626269 0.0335,0.04032 0.27521,0.137896 0.53721,0.216837 0.262,0.07894 0.66698,0.200631 0.89995,0.270422 l 0.42359,0.126891 v 0.230477 c 0,0.306708 -0.15513,1.043713 -0.30272,1.438186 l -0.11891,0.317817 -0.24199,-0.0365 c -0.13309,-0.02008 -0.54564,-0.08355 -0.91678,-0.141046 -0.75173,-0.116464 -0.91552,-0.09293 -1.06077,0.152405 -0.0521,0.08791 -0.2284,0.312546 -0.39188,0.499188 -0.22587,0.257871 -0.29724,0.384626 -0.29724,0.527914 0,0.10371 0.14667,0.554042 0.32594,1.000737 l 0.32593,0.812176 -0.13605,0.104703 c -0.37592,0.289307 -1.50125,0.787824 -1.64976,0.730836 -0.0423,-0.01622 -0.28225,-0.386332 -0.53331,-0.822474 -0.25702,-0.446492 -0.50395,-0.808055 -0.56513,-0.827472 -0.0597,-0.01897 -0.41274,-0.03412 -0.78441,-0.03368 -0.55061,6.61e-4 -0.69588,0.01902 -0.78443,0.09916 -0.0598,0.05409 -0.30034,0.436927 -0.5346,0.850741 -0.25351,0.447828 -0.46139,0.751655 -0.51355,0.750581 -0.0482,-0.0011 -0.27683,-0.07646 -0.50807,-0.167701 z m 2.76305,-5.082828 c 0.46039,-0.209084 0.6431,-0.836384 0.37277,-1.279783 -0.12601,-0.206675 -0.50891,-0.416753 -0.76353,-0.418909 -0.24227,-0.0021 -0.64258,0.242924 -0.76258,0.46667 -0.19757,0.368404 -0.0889,0.901109 0.23495,1.151656 0.25344,0.196075 0.59735,0.226169 0.91839,0.08037 z"
     inkscape:connector-curvature="0" />
  <path
     style="fill:#0000ff;fill-opacity:1;fill-rule:evenodd;stroke:none;stroke-width:0.22082342;stroke-linecap:butt;stroke-linejoin:miter;stroke-miterlimit:4;stroke-dasharray:none;stroke-dashoffset:75.59055328;stroke-opacity:1;paint-order:markers fill stroke"
     d="M 16.518207,31.104029 C 14.65992,30.794909 13.099984,29.979116 11.836499,28.655652 10.794228,27.563907 10.055184,26.168256 9.7365464,24.689993 9.6067622,24.087882 9.56234,22.738618 9.6495022,22.046143 9.933434,19.7904 11.273879,17.601269 13.117971,16.381654 c 0.99345,-0.657032 2.300466,-1.183242 3.273004,-1.317725 0.662051,-0.09155 2.154094,-0.07896 2.739422,0.02311 1.468643,0.256109 2.977525,1.026702 4.124459,2.106377 1.279005,1.204002 2.146368,2.832181 2.437722,4.575997 0.122819,0.735095 0.09217,2.23806 -0.05974,2.930064 -0.707413,3.222391 -3.157789,5.661661 -6.338596,6.309869 -0.753163,0.153485 -2.138498,0.200734 -2.776033,0.09468 z M 15.9423,29.037623 c 0.04382,-0.05624 0.265139,-0.412401 0.49183,-0.79148 0.281292,-0.470384 0.458683,-0.706922 0.558663,-0.744934 0.08057,-0.03063 0.429919,-0.0557 0.776325,-0.0557 0.739298,0 0.650451,-0.06258 1.202798,0.84718 0.567362,0.93449 0.514972,0.898827 1.039438,0.707544 0.449584,-0.163973 1.327014,-0.645676 1.327014,-0.728523 0,-0.02604 -0.101526,-0.296857 -0.225614,-0.601826 -0.331557,-0.814861 -0.432483,-1.148276 -0.394002,-1.301596 0.05346,-0.213007 0.779982,-1.07858 0.938756,-1.11843 0.07716,-0.01936 0.51674,0.01992 0.976851,0.08729 0.460111,0.06737 0.867286,0.122356 0.904834,0.122185 0.132167,-6.09e-4 0.483637,-1.290903 0.485766,-1.783315 l 0.001,-0.234709 -0.843417,-0.253777 c -0.46387,-0.139578 -0.894572,-0.289614 -0.957106,-0.333415 -0.09951,-0.0697 -0.239179,-0.525189 -0.39105,-1.275278 -0.03669,-0.181214 0.0667,-0.321068 0.742936,-1.004987 l 0.64198,-0.649269 -0.09192,-0.177751 c -0.114062,-0.220583 -0.717299,-0.97713 -0.961851,-1.206308 l -0.181693,-0.17027 -0.278915,0.176515 c -0.153404,0.09708 -0.512981,0.324882 -0.79906,0.506221 -0.28608,0.181338 -0.577198,0.329705 -0.646929,0.329705 -0.172033,0 -1.143421,-0.480019 -1.278778,-0.631919 -0.08682,-0.09743 -0.12414,-0.299158 -0.184715,-0.998467 -0.04175,-0.482002 -0.09294,-0.903913 -0.113743,-0.93758 -0.05803,-0.09389 -1.955083,-0.08262 -1.988544,0.01182 -0.01423,0.04017 -0.06556,0.478013 -0.114067,0.972987 -0.06361,0.649104 -0.114409,0.928925 -0.182251,1.00389 -0.113621,0.12555 -1.129539,0.579269 -1.297034,0.579269 -0.06553,0 -0.456776,-0.223146 -0.869447,-0.495881 -0.412671,-0.272735 -0.780846,-0.496215 -0.818167,-0.496623 -0.149324,-0.0016 -1.246733,1.339562 -1.246733,1.523689 0,0.02775 0.318477,0.362618 0.707726,0.744145 l 0.707727,0.693684 -0.0427,0.25705 c -0.071,0.427385 -0.258072,1.11595 -0.325141,1.196764 -0.03466,0.04177 -0.435735,0.19893 -0.891268,0.34925 -0.455533,0.150319 -0.865944,0.308805 -0.912025,0.352189 -0.07014,0.06603 -0.07292,0.148779 -0.01706,0.508068 0.08737,0.561967 0.343068,1.365121 0.447355,1.40514 0.04527,0.01737 0.432781,-0.01887 0.861141,-0.08054 0.42836,-0.06167 0.843226,-0.112615 0.921925,-0.113219 0.250747,-0.0019 1.054648,0.948564 1.054648,1.246961 0,0.08037 -0.116199,0.456861 -0.258221,0.836652 -0.394554,1.055113 -0.394855,0.969052 0.0043,1.226156 0.338078,0.217768 1.200874,0.600808 1.357583,0.602705 0.04466,5.29e-4 0.117047,-0.04503 0.160862,-0.101264 z"
     id="path2517"
     inkscape:connector-curvature="0" />
</svg>
